<?xml version="1.0" encoding="utf-8"?>
<!-- Generator: Adobe Illustrator 22.0.0, SVG Export Plug-In . SVG Version: 6.00 Build 0)  -->
<svg version="1.0" id="Layer_1" xmlns="http://www.w3.org/2000/svg" xmlns:xlink="http://www.w3.org/1999/xlink" x="0px" y="0px"
	 viewBox="0 0 4000 3000" style="enable-background:new 0 0 4000 3000;" xml:space="preserve">
<style type="text/css">
	.st0{fill:transparent;}
	.st1{fill:#1B75BC;}
</style>
<rect x="21.2" y="16.3" class="st0" width="3957.7" height="2967.4"/>
<g>
	<polygon class="st1" points="2936.3,2211.6 2730.9,2607.2 2781.6,2664.2 2987,2268.6 	"/>
	<path class="st1" d="M3146.6,2448.3L3034.4,2322L2829,2717.5l6.5,7.3c76.4,85.9,207.9,93.7,293.8,17.3h0
		C3215.3,2665.8,3223,2534.2,3146.6,2448.3z"/>
	<path class="st1" d="M2565.9,1794.9c-45.1-50.8-109.5-74.2-172.4-69.2l-170.7-192.1c123.8-145.6,191.3-328.4,191.3-521.6
		c0-215.5-83.9-418-236.3-570.4s-354.9-236.3-570.4-236.3c-215.5,0-418,83.9-570.4,236.3c-152.4,152.4-236.3,354.9-236.3,570.4
		s83.9,418,236.3,570.4c152.4,152.4,354.9,236.3,570.4,236.3c152.9,0,299.2-42.3,425.8-121.2l173,194.7
		c-12.4,61.8,3.3,128.6,48.5,179.3l428.8,482.4l205.4-395.6L2565.9,1794.9z M887.3,1011.9c0-397.1,323-720.1,720.1-720.1
		s720.1,323,720.1,720.1s-323,720.1-720.1,720.1S887.3,1409,887.3,1011.9z"/>
</g>
</svg>
